<svg width="90" height="90" viewBox="0 0 90 90" fill="none" xmlns="http://www.w3.org/2000/svg">
<mask id="mask0_22_638" style="mask-type:luminance" maskUnits="userSpaceOnUse" x="14" y="8" width="62" height="76">
<path fill-rule="evenodd" clip-rule="evenodd" d="M14.3843 8.66342H75.3951V83.9218H14.3843V8.66342Z" fill="white"/>
</mask>
<g mask="url(#mask0_22_638)">
<path fill-rule="evenodd" clip-rule="evenodd" d="M44.8898 14.2077C41.8405 14.2077 22.6025 21.1732 20.3838 23.0773C19.7294 23.7538 19.7042 24.9296 19.8445 32.8009C19.9092 36.5942 19.9991 41.748 19.9991 48.8836C19.9991 68.1126 40.5748 76.6494 44.8862 78.2207C49.1941 76.642 69.7806 68.0572 69.7806 48.8836C69.7806 41.7406 69.8705 36.5831 69.9388 32.7898C70.0755 24.9259 70.0503 23.7502 69.3563 23.0403C67.1808 21.1732 47.9392 14.2077 44.8898 14.2077ZM44.8897 83.9218C44.6272 83.9218 44.3647 83.8848 44.1094 83.8035C42.9048 83.4301 14.6051 74.3276 14.6051 48.8836C14.6051 41.7961 14.5152 36.6681 14.4505 32.9044C14.2851 23.5024 14.2491 21.5429 16.6116 19.1176C19.4344 16.2079 40.812 8.66196 44.8897 8.66196C48.9639 8.66196 70.3414 16.2079 73.1714 19.1176C75.5303 21.5429 75.4943 23.5024 75.3289 32.8933C75.2642 36.657 75.1743 41.785 75.1743 48.8836C75.1743 74.3276 46.8746 83.4301 45.67 83.8035C45.4147 83.8848 45.1522 83.9218 44.8897 83.9218Z" fill="#C7C7C7"/>
</g>
<path fill-rule="evenodd" clip-rule="evenodd" d="M42.349 54.9488C41.6334 54.9488 40.9466 54.6568 40.4396 54.1355L33.6362 47.133C32.5862 46.0497 32.5862 44.2899 33.6398 43.2103C34.6898 42.127 36.4014 42.127 37.455 43.2103L42.349 48.2495L54.46 35.7974C55.5136 34.7142 57.218 34.7142 58.2716 35.7974C59.3252 36.8807 59.3252 38.6369 58.2716 39.7202L44.2548 54.1355C43.7514 54.6568 43.0646 54.9488 42.349 54.9488Z" fill="#C7C7C7"/>
</svg>
