<svg width="87" height="89" viewBox="0 0 87 89" fill="none" xmlns="http://www.w3.org/2000/svg">
<path fill-rule="evenodd" clip-rule="evenodd" d="M61.319 37.7113C59.8303 37.7113 58.6221 36.469 58.6221 34.9384V27.0006C58.6221 19.2513 52.4911 12.9476 44.9541 12.9476H44.8966C41.2539 12.9476 37.8414 14.3895 35.2632 17.0182C32.667 19.658 31.2322 23.1814 31.2178 26.9377V34.9384C31.2178 36.469 30.0096 37.7113 28.5209 37.7113C27.0322 37.7113 25.824 36.469 25.824 34.9384V27.0006C25.8455 21.6766 27.8485 16.7631 31.4623 13.0807C35.0798 9.39458 39.8551 7.2613 44.9649 7.4018C55.4649 7.4018 64.0159 16.1937 64.0159 27.0006V34.9384C64.0159 36.469 62.8077 37.7113 61.319 37.7113Z" fill="#C7C7C7"/>
<path fill-rule="evenodd" clip-rule="evenodd" d="M31.1819 37.448C25.148 37.448 20.2432 42.491 20.2432 48.6948V64.552C20.2432 70.7559 25.148 75.7989 31.1819 75.7989H58.6581C64.6884 75.7989 69.5968 70.7559 69.5968 64.552V48.6948C69.5968 42.491 64.6884 37.448 58.6581 37.448H31.1819ZM58.6581 81.3446H31.1819C22.1742 81.3446 14.8494 73.8135 14.8494 64.552V48.6948C14.8494 39.4334 22.1742 31.9022 31.1819 31.9022H58.6581C67.6658 31.9022 74.9906 39.4334 74.9906 48.6948V64.552C74.9906 73.8135 67.6658 81.3446 58.6581 81.3446Z" fill="#C7C7C7"/>
<path fill-rule="evenodd" clip-rule="evenodd" d="M44.9193 63.5013C43.4306 63.5013 42.2224 62.2591 42.2224 60.7284V52.517C42.2224 50.9863 43.4306 49.7441 44.9193 49.7441C46.408 49.7441 47.6162 50.9863 47.6162 52.517V60.7284C47.6162 62.2591 46.408 63.5013 44.9193 63.5013Z" fill="#C7C7C7"/>
</svg>
