<svg width="87" height="89" viewBox="0 0 87 89" fill="none" xmlns="http://www.w3.org/2000/svg">
<mask id="mask0_35218_12644" style="mask-type:luminance" maskUnits="userSpaceOnUse" x="7" y="53" width="58" height="28">
<path fill-rule="evenodd" clip-rule="evenodd" d="M7.89062 53.4465H64.5403V80.5797H7.89062V53.4465Z" fill="white"/>
</mask>
<g mask="url(#mask0_35218_12644)">
<path fill-rule="evenodd" clip-rule="evenodd" d="M36.2154 58.9922C21.0012 58.9922 13.2844 61.6801 13.2844 66.9745C13.2844 72.3206 21.0012 75.0343 36.2154 75.0343C51.4297 75.0343 59.1464 72.3465 59.1464 67.0558C59.1464 61.7023 51.4297 58.9922 36.2154 58.9922ZM36.2155 80.5801C29.2107 80.5801 7.89062 80.5801 7.89062 66.9745C7.89062 54.8477 24.0542 53.4465 36.2155 53.4465C43.2202 53.4465 64.5403 53.4465 64.5403 67.0558C64.5403 79.1789 48.3768 80.5801 36.2155 80.5801Z" fill="#C7C7C7"/>
</g>
<path fill-rule="evenodd" clip-rule="evenodd" d="M36.2157 12.9401C28.6499 12.9401 22.4901 19.2734 22.4901 27.056C22.4758 30.8234 23.8853 34.3542 26.4564 37.0199C29.0311 39.6818 32.4615 41.157 36.115 41.1718L36.2157 43.9447V41.1718C43.785 41.1718 49.9448 34.8385 49.9448 27.056C49.9448 19.2734 43.785 12.9401 36.2157 12.9401ZM36.2157 46.7176H36.1042C31.0016 46.6991 26.2191 44.6398 22.634 40.9278C19.0453 37.2121 17.0783 32.2801 17.0963 27.0449C17.0963 16.2158 25.6725 7.39435 36.2157 7.39435C46.7624 7.39435 55.3386 16.2158 55.3386 27.056C55.3386 37.8961 46.7624 46.7176 36.2157 46.7176Z" fill="#C7C7C7"/>
<path fill-rule="evenodd" clip-rule="evenodd" d="M69.7545 49.6521C68.2658 49.6521 67.0576 48.4098 67.0576 46.8792V32.0498C67.0576 30.5191 68.2658 29.2769 69.7545 29.2769C71.2432 29.2769 72.4515 30.5191 72.4515 32.0498V46.8792C72.4515 48.4098 71.2432 49.6521 69.7545 49.6521Z" fill="#C7C7C7"/>
<path fill-rule="evenodd" clip-rule="evenodd" d="M77.1116 42.2359H62.4044C60.9157 42.2359 59.7075 40.9936 59.7075 39.463C59.7075 37.9323 60.9157 36.6901 62.4044 36.6901H77.1116C78.6003 36.6901 79.8085 37.9323 79.8085 39.463C79.8085 40.9936 78.6003 42.2359 77.1116 42.2359Z" fill="#C7C7C7"/>
</svg>
